<?xml version="1.0" encoding="UTF-8" standalone="no"?>
<!-- Created with Inkscape (http://www.inkscape.org/) -->

<svg
   xmlns:dc="http://purl.org/dc/elements/1.1/"
   xmlns:cc="http://creativecommons.org/ns#"
   xmlns:rdf="http://www.w3.org/1999/02/22-rdf-syntax-ns#"
   xmlns:svg="http://www.w3.org/2000/svg"
   xmlns="http://www.w3.org/2000/svg"
   xmlns:sodipodi="http://sodipodi.sourceforge.net/DTD/sodipodi-0.dtd"
   xmlns:inkscape="http://www.inkscape.org/namespaces/inkscape"
   width="150mm"
   height="75mm"
   viewBox="0 0 150 75"
   version="1.1"
   id="svg1895"
   inkscape:version="0.92.4 5da689c313, 2019-01-14"
   sodipodi:docname="climacontrol.svg">
  <defs
     id="defs1889" />
  <sodipodi:namedview
     id="base"
     pagecolor="#ffffff"
     bordercolor="#666666"
     borderopacity="1.0"
     inkscape:pageopacity="0.0"
     inkscape:pageshadow="2"
     inkscape:zoom="0.35"
     inkscape:cx="-404.28571"
     inkscape:cy="560"
     inkscape:document-units="mm"
     inkscape:current-layer="layer1"
     showgrid="false"
     inkscape:window-width="1920"
     inkscape:window-height="987"
     inkscape:window-x="1920"
     inkscape:window-y="0"
     inkscape:window-maximized="1" />
  <metadata
     id="metadata1892">
    <rdf:RDF>
      <cc:Work
         rdf:about="">
        <dc:format>image/svg+xml</dc:format>
        <dc:type
           rdf:resource="http://purl.org/dc/dcmitype/StillImage" />
        <dc:title></dc:title>
      </cc:Work>
    </rdf:RDF>
  </metadata>
  <g
     inkscape:label="Camada 1"
     inkscape:groupmode="layer"
     id="layer1"
     transform="translate(0,-222)">
    <g
       id="g1863"
       transform="matrix(0.4906917,0,0,0.4906917,375.51248,375.39467)">
      <g
         style="fill:none;fill-opacity:1;stroke:#002255;stroke-width:1.12313223;stroke-miterlimit:4;stroke-dasharray:none;stroke-opacity:1"
         id="g1495"
         transform="matrix(0.33163069,-2.0234131,-2.0234131,-0.33163069,33.916394,-169.2153)">
        <path
           inkscape:connector-curvature="0"
           d="m -1.8224955,284.30645 c -1.9874079,-2.82343 -3.8533912,2.43975 -4.9289249,0.372 -2.5329779,-4.86975 -4.9056586,-1.11861 -4.9056586,-1.11861 0,0 2.7133599,-3.30013 4.5394754,-1.11149 1.588043,1.90331 3.3611731,-3.47881 6.021513,0.18296 1.83518699,2.29399 3.9163477,0.39647 3.9163477,0.39647 l 0.090566,-0.62736 4.273124,1.59394 -2.7946285,2.27259 c -0.182023,-0.24879 -0.3686418,-0.73705 -0.5932623,-1.04408 0,0 -4.02471751,1.55136 -5.6185521,-0.91641 z m 2.26197643,6.15023 c -1.98740793,-2.82343 -3.85339123,2.43975 -4.92892493,0.372 -2.5329779,-4.86975 -4.9056584,-1.11861 -4.9056584,-1.11861 0,0 2.7133597,-3.30013 4.5394752,-1.11149 1.588043,1.90331 3.3611731,-3.47881 6.021513,0.18296 1.835187,2.29399 3.9163477,0.39647 3.9163477,0.39647 l 0.090566,-0.62736 4.273124,1.59394 -2.7946285,2.27259 c -0.182023,-0.24879 -0.3686418,-0.73705 -0.5932623,-1.04408 0,0 -4.0247175,1.55136 -5.61855207,-0.91641 z m -16.57919993,7.51401 0.570472,-3.48068 m 3.760908,4.19058 0.570471,-3.48068 m 3.760892,4.19058 0.5704714,-3.48068 m 3.7609078,4.19057 0.5704714,-3.48067 m 20.6513564,9.15892 -5.474372,0.6437 z m -2.459564,9.055 -4.31621,-3.42881 z m -3.075131,-6.62317 c -0.455352,2.937 -2.8135572,5.20978 -5.7653692,5.55654 -3.6284475,0.42607 -6.9153409,-2.16987 -7.34157491,-5.79831 -0.11836914,-1.0155 2.7164e-4,-2.04462 0.34659683,-3.00655 -0.31067842,0.0884 -0.62680807,0.11655 -0.93749292,0.0656 l -23.6227828,-3.8717 c -2.300165,2.80948 -6.200137,3.72373 -9.509218,2.22909 -3.309077,-1.49466 -5.202197,-5.02569 -4.614927,-8.60886 0.235654,-1.43782 0.852191,-2.73609 1.73327,-3.80348 -13.487083,-6.32199 -12.345813,-18.25494 -2.012654,-23.42523 -2.215776,4.4677 -1.400167,9.8456 2.040167,13.45575 3.440401,3.61012 8.770949,4.6828 13.340076,2.68463 4.569098,-1.9982 7.399806,-6.64123 7.084847,-11.61822 2.083569,3.0315 2.43409,6.04407 1.953082,8.66075 -0.618544,3.36429 -2.609906,6.07358 -4.055621,7.32558 -1.643198,1.42295 -3.61119,2.54249 -5.698719,3.27874 0.421933,0.57576 0.775599,1.21142 1.03728,1.90417 l 23.62278298,3.8717 c 1.65711772,0.27159 2.74873962,2.6898 2.52916952,4.37689 0.7858269,-0.46013 1.6581954,-0.75309 2.562472,-0.86048 3.6284474,-0.42607 6.9153405,2.16987 7.3415905,5.79831 0.06973,0.59377 0.05865,1.19426 -0.03294,1.78505 z m 1.024322,-10.53035 -3.429639,4.31609 z M 7.4367577,319.38947 6.7940156,313.91443 Z M 5.2151749,300.47883 4.5714903,295.00448 Z m -3.3431614,11.91893 -3.4288158,4.31622 z m -2.46481691,-4.426 -5.47517989,0.64356 z"
           style="fill:none;fill-opacity:1;stroke:#002255;stroke-width:1.12313223;stroke-linecap:butt;stroke-linejoin:round;stroke-miterlimit:4;stroke-dasharray:none;stroke-opacity:1"
           id="path1521" />
      </g>
      <g
         id="flowRoot1526"
         style="font-style:normal;font-weight:normal;font-size:32px;line-height:1.25;font-family:sans-serif;letter-spacing:0px;word-spacing:0px;fill:#000000;fill-opacity:1;stroke:none"
         transform="matrix(2.7866521,0,0,3.7219883,778.20338,86.982004)"
         aria-label="CLIMA ">
        <path
           id="path1553"
           style="font-style:normal;font-variant:normal;font-weight:normal;font-stretch:normal;font-family:'Yanone Kaffeesatz';-inkscape-font-specification:'Yanone Kaffeesatz';fill:#d4aa00;fill-opacity:1"
           d="m -544.84342,-96.78006 c -2.88,0 -6.304,1.6 -6.304,12.544 0,9.312 2.272,10.688 5.312,10.688 2.368,0 3.968,-1.056 3.968,-2.304 0,-0.544 -0.192,-1.152 -0.416,-1.568 -0.576,0.48 -1.696,0.992 -2.944,0.992 -1.856,0 -3.2,-1.44 -3.2,-7.968 0,-8.416 2.08,-9.856 4.096,-9.856 0.992,0 1.76,0.512 2.08,0.8 0.192,-0.384 0.416,-0.96 0.416,-1.568 0,-0.832 -0.64,-1.76 -3.008,-1.76 z"
           inkscape:connector-curvature="0" />
        <path
           id="path1555"
           style="font-style:normal;font-variant:normal;font-weight:normal;font-stretch:normal;font-family:'Yanone Kaffeesatz';-inkscape-font-specification:'Yanone Kaffeesatz';fill:#d4aa00;fill-opacity:1"
           d="m -537.22748,-76.39606 v -19.968 c -2.56,0 -2.624,0 -2.624,0.736 v 21.664 h 7.616 c 0.288,0 0.512,-0.096 0.512,-0.544 v -1.888 z"
           inkscape:connector-curvature="0" />
        <path
           id="path1557"
           style="font-style:normal;font-variant:normal;font-weight:normal;font-stretch:normal;font-family:'Yanone Kaffeesatz';-inkscape-font-specification:'Yanone Kaffeesatz';fill:#d4aa00;fill-opacity:1"
           d="m -529.8035,-95.18006 v 21.216 c 2.624,0 2.656,0 2.656,-0.544 v -21.856 c -2.592,0 -2.656,0 -2.656,1.184 z"
           inkscape:connector-curvature="0" />
        <path
           id="path1559"
           style="font-style:normal;font-variant:normal;font-weight:normal;font-stretch:normal;font-family:'Yanone Kaffeesatz';-inkscape-font-specification:'Yanone Kaffeesatz';fill:#d4aa00;fill-opacity:1"
           d="m -513.64355,-96.36406 c -0.32,0 -0.416,0.224 -0.512,0.512 l -2.816,9.248 c -0.384,1.216 -0.928,3.456 -0.928,3.456 0,0 -0.608,-2.24 -1.024,-3.552 l -3.04,-9.664 h -1.888 c -0.288,0 -0.544,0.032 -0.544,0.512 v 21.888 c 2.432,0 2.592,0 2.592,-0.544 l -0.064,-7.36 c -0.032,-3.424 -0.608,-9.344 -0.608,-9.344 l 0.032,-0.032 c 0.672,2.464 1.792,6.528 2.048,7.232 l 1.664,5.12 h 1.12 c 0.128,0 0.288,-0.032 0.352,-0.256 l 1.696,-4.864 c 0.256,-0.768 1.408,-4.896 2.08,-7.296 -0.064,0.736 -0.512,6.4 -0.608,9.568 l -0.096,7.776 c 2.656,0 2.656,0 2.656,-0.544 v -21.856 z"
           inkscape:connector-curvature="0" />
        <path
           id="path1561"
           style="font-style:normal;font-variant:normal;font-weight:normal;font-stretch:normal;font-family:'Yanone Kaffeesatz';-inkscape-font-specification:'Yanone Kaffeesatz';fill:#d4aa00;fill-opacity:1"
           d="m -496.3316,-74.44406 -5.728,-21.92 c -0.288,-0.064 -0.768,-0.096 -1.216,-0.096 -0.576,0 -0.928,0.128 -0.992,0.448 l -5.696,22.016 c 0.608,0.064 1.28,0.096 1.632,0.096 1.024,0 1.12,-0.16 1.216,-0.512 l 1.216,-5.248 h 5.536 l 1.376,5.696 c 0.64,0.064 1.152,0.064 1.536,0.064 1.024,0 1.216,-0.192 1.12,-0.544 z m -8.992,-7.584 1.088,-4.544 c 0.48,-2.144 0.928,-4.608 1.12,-6.144 0.16,1.536 0.608,4.032 1.12,6.144 l 1.088,4.544 z"
           inkscape:connector-curvature="0" />
      </g>
      <g
         id="text1538"
         style="font-style:normal;font-variant:normal;font-weight:normal;font-stretch:normal;font-size:7.36837196px;line-height:1.25;font-family:'Yanone Kaffeesatz';-inkscape-font-specification:'Yanone Kaffeesatz';letter-spacing:0px;word-spacing:0px;fill:#d4aa00;fill-opacity:1;stroke:none;stroke-width:0.3947342"
         transform="matrix(2.7197768,0,0,7.0521134,97.510394,-1344.256)"
         aria-label="ONTROL">
        <path
           id="path1540"
           style="font-style:normal;font-variant:normal;font-weight:normal;font-stretch:normal;font-family:'Yanone Kaffeesatz';-inkscape-font-specification:'Yanone Kaffeesatz';fill:#d4aa00;fill-opacity:1;stroke-width:0.3947342"
           d="m -224.68145,162.66284 c 0,2.12209 0.37579,2.67472 1.33368,2.67472 0.96526,0 1.38525,-0.67053 1.38525,-2.69683 0,-1.98946 -0.35368,-2.59367 -1.3042,-2.59367 -0.95789,0 -1.41473,0.65579 -1.41473,2.61578 z m 0.67053,0.14736 c 0,-1.59156 0.20631,-2.15156 0.7221,-2.15156 0.53052,0 0.67789,0.52315 0.67789,1.99683 0,1.50315 -0.18421,2.07051 -0.71473,2.07051 -0.52316,0 -0.68526,-0.54526 -0.68526,-1.91578 z"
           inkscape:connector-curvature="0" />
        <path
           id="path1542"
           style="font-style:normal;font-variant:normal;font-weight:normal;font-stretch:normal;font-family:'Yanone Kaffeesatz';-inkscape-font-specification:'Yanone Kaffeesatz';fill:#d4aa00;fill-opacity:1;stroke-width:0.3947342"
           d="m -219.38359,160.23127 v 1.73894 c 0,0.34631 0.0147,1.7463 0.0663,2.18841 v 0.0221 c -0.17684,-0.55263 -0.55263,-1.69472 -0.69999,-2.07788 l -0.82526,-1.98946 h -0.45684 c -0.0884,0 -0.12526,0.0368 -0.12526,0.11789 v 5.03997 c 0.59684,0 0.6042,0 0.6042,-0.12526 v -1.78315 c 0,-0.31684 -0.0368,-1.7242 -0.0811,-2.20314 0.18421,0.5821 0.56737,1.75367 0.7,2.08525 l 0.83999,2.0263 h 0.44947 c 0.0811,0 0.12526,-0.0442 0.12526,-0.12526 v -5.0326 c -0.58947,0 -0.59683,0 -0.59683,0.11789 z"
           inkscape:connector-curvature="0" />
        <path
           id="path1544"
           style="font-style:normal;font-variant:normal;font-weight:normal;font-stretch:normal;font-family:'Yanone Kaffeesatz';-inkscape-font-specification:'Yanone Kaffeesatz';fill:#d4aa00;fill-opacity:1;stroke-width:0.3947342"
           d="m -218.28572,160.11338 c -0.0884,0 -0.12526,0.0368 -0.12526,0.11789 v 0.44211 h 1.0021 v 4.59786 c 0.58947,0 0.59684,0 0.59684,-0.11789 v -4.47997 h 0.90631 c 0.0884,0 0.12526,-0.0295 0.12526,-0.12527 v -0.43473 z"
           inkscape:connector-curvature="0" />
        <path
           id="path1546"
           style="font-style:normal;font-variant:normal;font-weight:normal;font-stretch:normal;font-family:'Yanone Kaffeesatz';-inkscape-font-specification:'Yanone Kaffeesatz';fill:#d4aa00;fill-opacity:1;stroke-width:0.3947342"
           d="m -213.1426,165.13124 c -0.0737,-1.12736 -0.45684,-1.80525 -0.69263,-2.12209 0.38316,-0.21368 0.64105,-0.65579 0.64105,-1.43683 0,-1.02421 -0.42736,-1.45894 -1.35578,-1.45894 h -0.37579 -0.35368 c -0.12526,0 -0.12526,0.11789 -0.12526,0.11789 v 5.03997 c 0.58947,0 0.60421,0 0.60421,-0.12526 v -1.96736 h 0.25789 c 0.0442,0 0.0958,0 0.14,-0.007 0.17684,0.24316 0.53052,0.85474 0.6042,2.09999 0.13263,0.007 0.2579,0.0147 0.35369,0.0147 0.27999,0 0.3021,-0.0368 0.3021,-0.15474 z m -1.65788,-2.50525 v -1.98946 h 0.36105 c 0.43473,0 0.5821,0.33895 0.5821,0.90631 0,0.78105 -0.21369,1.08315 -0.62631,1.08315 z"
           inkscape:connector-curvature="0" />
        <path
           id="path1548"
           style="font-style:normal;font-variant:normal;font-weight:normal;font-stretch:normal;font-family:'Yanone Kaffeesatz';-inkscape-font-specification:'Yanone Kaffeesatz';fill:#d4aa00;fill-opacity:1;stroke-width:0.3947342"
           d="m -212.75945,162.66284 c 0,2.12209 0.37579,2.67472 1.33368,2.67472 0.96525,0 1.38525,-0.67053 1.38525,-2.69683 0,-1.98946 -0.35368,-2.59367 -1.3042,-2.59367 -0.95789,0 -1.41473,0.65579 -1.41473,2.61578 z m 0.67052,0.14736 c 0,-1.59156 0.20632,-2.15156 0.72211,-2.15156 0.53052,0 0.67789,0.52315 0.67789,1.99683 0,1.50315 -0.18421,2.07051 -0.71474,2.07051 -0.52315,0 -0.68526,-0.54526 -0.68526,-1.91578 z"
           inkscape:connector-curvature="0" />
        <path
           id="path1550"
           style="font-style:normal;font-variant:normal;font-weight:normal;font-stretch:normal;font-family:'Yanone Kaffeesatz';-inkscape-font-specification:'Yanone Kaffeesatz';fill:#d4aa00;fill-opacity:1;stroke-width:0.3947342"
           d="m -208.89843,164.71124 v -4.59786 c -0.58947,0 -0.6042,0 -0.6042,0.16947 v 4.98839 h 1.75367 c 0.0663,0 0.11789,-0.0221 0.11789,-0.12526 v -0.43474 z"
           inkscape:connector-curvature="0" />
      </g>
    </g>
  </g>
</svg>
