<?xml version="1.0" encoding="UTF-8" standalone="no"?>
<!-- Created with Inkscape (http://www.inkscape.org/) -->

<svg
   xmlns:dc="http://purl.org/dc/elements/1.1/"
   xmlns:cc="http://creativecommons.org/ns#"
   xmlns:rdf="http://www.w3.org/1999/02/22-rdf-syntax-ns#"
   xmlns:svg="http://www.w3.org/2000/svg"
   xmlns="http://www.w3.org/2000/svg"
   xmlns:sodipodi="http://sodipodi.sourceforge.net/DTD/sodipodi-0.dtd"
   xmlns:inkscape="http://www.inkscape.org/namespaces/inkscape"
   width="32mm"
   height="32mm"
   viewBox="0 0 32 32"
   version="1.1"
   id="svg2030"
   inkscape:version="0.92.4 5da689c313, 2019-01-14"
   sodipodi:docname="humidade.svg">
  <defs
     id="defs2024" />
  <sodipodi:namedview
     id="base"
     pagecolor="#ffffff"
     bordercolor="#666666"
     borderopacity="1.0"
     inkscape:pageopacity="0.0"
     inkscape:pageshadow="2"
     inkscape:zoom="1.4"
     inkscape:cx="-213.28616"
     inkscape:cy="-43.265312"
     inkscape:document-units="mm"
     inkscape:current-layer="layer1"
     showgrid="false"
     inkscape:window-width="1877"
     inkscape:window-height="1025"
     inkscape:window-x="43"
     inkscape:window-y="27"
     inkscape:window-maximized="1" />
  <metadata
     id="metadata2027">
    <rdf:RDF>
      <cc:Work
         rdf:about="">
        <dc:format>image/svg+xml</dc:format>
        <dc:type
           rdf:resource="http://purl.org/dc/dcmitype/StillImage" />
        <dc:title></dc:title>
      </cc:Work>
    </rdf:RDF>
  </metadata>
  <g
     inkscape:label="Camada 1"
     inkscape:groupmode="layer"
     id="layer1"
     transform="translate(0,-265)">
    <g
       id="g2605"
       transform="translate(48.818413,17.37252)">
      <path
         sodipodi:nodetypes="cccc"
         inkscape:connector-curvature="0"
         d="m -31.500425,265.62792 c -2.29457,-3.79619 2.95277,-8.17677 4.82122,-12.45791 0.35763,-0.81942 7.38059,8.87371 4.88704,12.59787 -1.83468,2.74012 -7.04796,4.26129 -9.70826,-0.13996 z"
         style="fill:#afdde9;stroke:#afdde9;stroke-width:1;stroke-linecap:round;stroke-linejoin:round;stroke-miterlimit:4;stroke-dasharray:none;stroke-opacity:1"
         id="path840" />
      <path
         sodipodi:nodetypes="ssccccsscs"
         id="path2598"
         style="fill:#aaffcc;fill-opacity:1;stroke:#aaffcc;stroke-width:1;stroke-linecap:round;stroke-linejoin:round;stroke-miterlimit:4;stroke-dasharray:none;stroke-opacity:1"
         d="m -35.395937,275.83102 c -4.616415,-1.4442 -8.041451,-5.52824 -8.819927,-10.51696 -0.778475,-4.98872 1.226346,-10.00586 5.162683,-12.91982 l -1.256936,-1.51992 c 8.140069,0.70345 8.23905,0.3021 4.91369,8.22098 l -1.221341,-1.94823 c -3.356211,2.2111 -5.065568,6.01809 -4.401821,9.80351 0.663745,3.78542 3.584009,6.88438 7.520071,7.98023 3.936061,1.09585 8.196571,-0.004 10.971383,-2.83195 -3.254443,3.72706 -8.251387,5.17636 -12.867802,3.73216 z"
         inkscape:connector-curvature="0" />
    </g>
  </g>
</svg>
