<?xml version="1.0" encoding="UTF-8" standalone="no"?>
<!-- Created with Inkscape (http://www.inkscape.org/) -->

<svg
   xmlns:dc="http://purl.org/dc/elements/1.1/"
   xmlns:cc="http://creativecommons.org/ns#"
   xmlns:rdf="http://www.w3.org/1999/02/22-rdf-syntax-ns#"
   xmlns:svg="http://www.w3.org/2000/svg"
   xmlns="http://www.w3.org/2000/svg"
   xmlns:xlink="http://www.w3.org/1999/xlink"
   xmlns:sodipodi="http://sodipodi.sourceforge.net/DTD/sodipodi-0.dtd"
   xmlns:inkscape="http://www.inkscape.org/namespaces/inkscape"
   width="32mm"
   height="32mm"
   viewBox="0 0 32 32"
   version="1.1"
   id="svg8"
   inkscape:export-filename="/home/bahge/Imagens/TGS/temp.png"
   inkscape:export-xdpi="50.799999"
   inkscape:export-ydpi="50.799999"
   inkscape:version="0.92.4 5da689c313, 2019-01-14"
   sodipodi:docname="icones.svg">
  <defs
     id="defs2">
    <linearGradient
       inkscape:collect="always"
       id="linearGradient1815">
      <stop
         style="stop-color:#d4aa00;stop-opacity:1"
         offset="0"
         id="stop1811" />
      <stop
         style="stop-color:#002255;stop-opacity:1"
         offset="1"
         id="stop1813" />
    </linearGradient>
    <linearGradient
       inkscape:collect="always"
       xlink:href="#linearGradient1815"
       id="linearGradient1817"
       x1="-279.16583"
       y1="92.856148"
       x2="-278.44006"
       y2="93.665466"
       gradientUnits="userSpaceOnUse"
       gradientTransform="translate(-342.74643,-122.73016)" />
  </defs>
  <sodipodi:namedview
     id="base"
     pagecolor="#ffffff"
     bordercolor="#666666"
     borderopacity="1.0"
     inkscape:pageopacity="0.0"
     inkscape:pageshadow="2"
     inkscape:zoom="0.1767767"
     inkscape:cx="-1003.7239"
     inkscape:cy="2034.4614"
     inkscape:document-units="mm"
     inkscape:current-layer="layer1"
     showgrid="false"
     inkscape:window-width="1920"
     inkscape:window-height="987"
     inkscape:window-x="1920"
     inkscape:window-y="0"
     inkscape:window-maximized="1" />
  <metadata
     id="metadata5">
    <rdf:RDF>
      <cc:Work
         rdf:about="">
        <dc:format>image/svg+xml</dc:format>
        <dc:type
           rdf:resource="http://purl.org/dc/dcmitype/StillImage" />
        <dc:title />
      </cc:Work>
    </rdf:RDF>
  </metadata>
  <g
     inkscape:label="Camada 1"
     inkscape:groupmode="layer"
     id="layer1"
     transform="translate(0,-265)">
    <path
       id="path824"
       style="fill:none;stroke:#000000;stroke-width:1;stroke-linecap:round;stroke-linejoin:miter;stroke-miterlimit:4;stroke-dasharray:none;stroke-opacity:1"
       d="m 18.128261,272.11793 h -2.267857 m 2.267857,2.64585 h -2.267857 m 2.267857,2.64585 h -2.267857 m 2.267857,2.64584 h -2.267857 m 2.639685,4.739 c 1.959839,1.13151 2.915245,3.4383 2.329531,5.62422 -0.585717,2.18592 -2.566603,3.7059 -4.82963,3.7059 -2.263027,0 -4.243911,-1.51998 -4.829628,-3.7059 -0.585714,-2.18592 0.369888,-4.49271 2.329727,-5.62422 0,0 0,0 0,-14.91906 0,-1.06719 1.432813,-2 2.5,-2 1.067187,0 2.5,0.93281 2.5,2 0,14.91906 0,14.91906 0,14.91906 z"
       inkscape:connector-curvature="0" />
    <path
       id="path840"
       style="fill:none;stroke:#000000;stroke-width:1;stroke-linecap:round;stroke-linejoin:round;stroke-miterlimit:4;stroke-dasharray:none;stroke-opacity:1"
       d="m -36.373127,307.99746 1.221341,1.94823 2.740327,-7.55953 -7.654017,-0.66145 1.256936,1.51992 m 16.525046,19.70462 a 12.578918,13.200344 0 0 1 -12.867802,3.73216 12.578918,13.200344 0 0 1 -8.819927,-10.51696 12.578918,13.200344 0 0 1 5.162683,-12.91982 m 16.525046,19.70462 a 10.725074,10.016369 0 0 1 -10.971383,2.83195 10.725074,10.016369 0 0 1 -7.520071,-7.98023 10.725074,10.016369 0 0 1 4.401821,-9.80351 m 3.864449,8.93719 c -2.294574,-3.79619 2.952763,-8.17677 4.821221,-12.45791 0.357624,-0.81942 7.380584,8.87371 4.887034,12.59787 -1.834674,2.74012 -7.047962,4.26129 -9.708255,-0.13996 z"
       inkscape:connector-curvature="0" />
    <g
       id="g979"
       transform="translate(-19.465774,33.923363)">
      <g
         id="g938">
        <rect
           style="opacity:1;fill:none;fill-opacity:1;stroke:#000000;stroke-width:1;stroke-linecap:round;stroke-linejoin:round;stroke-miterlimit:4;stroke-dasharray:none;stroke-dashoffset:0;stroke-opacity:1"
           id="rect844"
           width="6.7090774"
           height="28.348215"
           x="22.111607"
           y="266.7619" />
        <g
           id="g909"
           transform="matrix(1,0,0,1.2863254,20.111607,-75.205958)">
          <path
             sodipodi:nodetypes="cc"
             inkscape:connector-curvature="0"
             id="path846"
             d="M 2,272 H 6"
             style="fill:none;stroke:#000000;stroke-width:0.26458332px;stroke-linecap:butt;stroke-linejoin:miter;stroke-opacity:1" />
          <path
             style="fill:none;stroke:#000000;stroke-width:0.26458332px;stroke-linecap:butt;stroke-linejoin:miter;stroke-opacity:1"
             d="M 2,276.86771 H 6"
             id="path848"
             inkscape:connector-curvature="0"
             sodipodi:nodetypes="cc" />
          <path
             style="fill:none;stroke:#000000;stroke-width:0.22994958px;stroke-linecap:butt;stroke-linejoin:miter;stroke-opacity:1"
             d="M 2,270.98268 H 5"
             id="path850"
             inkscape:connector-curvature="0"
             sodipodi:nodetypes="cc" />
          <path
             sodipodi:nodetypes="cc"
             inkscape:connector-curvature="0"
             id="path852"
             d="M 2,275.88503 H 5"
             style="fill:none;stroke:#000000;stroke-width:0.22994958px;stroke-linecap:butt;stroke-linejoin:miter;stroke-opacity:1" />
          <path
             sodipodi:nodetypes="cc"
             inkscape:connector-curvature="0"
             id="path854"
             d="M 2,269.98268 H 5"
             style="fill:none;stroke:#000000;stroke-width:0.22994958px;stroke-linecap:butt;stroke-linejoin:miter;stroke-opacity:1" />
          <path
             style="fill:none;stroke:#000000;stroke-width:0.22994958px;stroke-linecap:butt;stroke-linejoin:miter;stroke-opacity:1"
             d="M 2,274.88503 H 5"
             id="path856"
             inkscape:connector-curvature="0"
             sodipodi:nodetypes="cc" />
          <path
             style="fill:none;stroke:#000000;stroke-width:0.22994958px;stroke-linecap:butt;stroke-linejoin:miter;stroke-opacity:1"
             d="M 2,268.98268 H 5"
             id="path858"
             inkscape:connector-curvature="0"
             sodipodi:nodetypes="cc" />
          <path
             sodipodi:nodetypes="cc"
             inkscape:connector-curvature="0"
             id="path860"
             d="M 2,273.88503 H 5"
             style="fill:none;stroke:#000000;stroke-width:0.22994958px;stroke-linecap:butt;stroke-linejoin:miter;stroke-opacity:1" />
          <path
             sodipodi:nodetypes="cc"
             inkscape:connector-curvature="0"
             id="path862"
             d="M 2,267.98268 H 5"
             style="fill:none;stroke:#000000;stroke-width:0.22994958px;stroke-linecap:butt;stroke-linejoin:miter;stroke-opacity:1" />
          <path
             style="fill:none;stroke:#000000;stroke-width:0.22994958px;stroke-linecap:butt;stroke-linejoin:miter;stroke-opacity:1"
             d="M 2,272.88503 H 5"
             id="path864"
             inkscape:connector-curvature="0"
             sodipodi:nodetypes="cc" />
          <path
             style="fill:none;stroke:#000000;stroke-width:0.26458332px;stroke-linecap:butt;stroke-linejoin:miter;stroke-opacity:1"
             d="M 2,282 H 6"
             id="path866"
             inkscape:connector-curvature="0"
             sodipodi:nodetypes="cc" />
          <path
             sodipodi:nodetypes="cc"
             inkscape:connector-curvature="0"
             id="path868"
             d="M 2,286.86771 H 6"
             style="fill:none;stroke:#000000;stroke-width:0.26458332px;stroke-linecap:butt;stroke-linejoin:miter;stroke-opacity:1" />
          <path
             sodipodi:nodetypes="cc"
             inkscape:connector-curvature="0"
             id="path870"
             d="M 2,280.98268 H 5"
             style="fill:none;stroke:#000000;stroke-width:0.22994958px;stroke-linecap:butt;stroke-linejoin:miter;stroke-opacity:1" />
          <path
             style="fill:none;stroke:#000000;stroke-width:0.22994958px;stroke-linecap:butt;stroke-linejoin:miter;stroke-opacity:1"
             d="M 2,285.88503 H 5"
             id="path872"
             inkscape:connector-curvature="0"
             sodipodi:nodetypes="cc" />
          <path
             style="fill:none;stroke:#000000;stroke-width:0.22994958px;stroke-linecap:butt;stroke-linejoin:miter;stroke-opacity:1"
             d="M 2,279.98268 H 5"
             id="path874"
             inkscape:connector-curvature="0"
             sodipodi:nodetypes="cc" />
          <path
             sodipodi:nodetypes="cc"
             inkscape:connector-curvature="0"
             id="path876"
             d="M 2,284.88503 H 5"
             style="fill:none;stroke:#000000;stroke-width:0.22994958px;stroke-linecap:butt;stroke-linejoin:miter;stroke-opacity:1" />
          <path
             sodipodi:nodetypes="cc"
             inkscape:connector-curvature="0"
             id="path878"
             d="M 2,278.98268 H 5"
             style="fill:none;stroke:#000000;stroke-width:0.22994958px;stroke-linecap:butt;stroke-linejoin:miter;stroke-opacity:1" />
          <path
             style="fill:none;stroke:#000000;stroke-width:0.22994958px;stroke-linecap:butt;stroke-linejoin:miter;stroke-opacity:1"
             d="M 2,283.88503 H 5"
             id="path880"
             inkscape:connector-curvature="0"
             sodipodi:nodetypes="cc" />
          <path
             style="fill:none;stroke:#000000;stroke-width:0.22994958px;stroke-linecap:butt;stroke-linejoin:miter;stroke-opacity:1"
             d="M 2,277.98268 H 5"
             id="path882"
             inkscape:connector-curvature="0"
             sodipodi:nodetypes="cc" />
          <path
             sodipodi:nodetypes="cc"
             inkscape:connector-curvature="0"
             id="path884"
             d="M 2,282.88503 H 5"
             style="fill:none;stroke:#000000;stroke-width:0.22994958px;stroke-linecap:butt;stroke-linejoin:miter;stroke-opacity:1" />
          <path
             style="fill:none;stroke:#000000;stroke-width:0.26458332px;stroke-linecap:butt;stroke-linejoin:miter;stroke-opacity:1"
             d="M 2,266.86771 H 6"
             id="path886"
             inkscape:connector-curvature="0"
             sodipodi:nodetypes="cc" />
        </g>
      </g>
      <text
         id="text942"
         y="285.22171"
         x="8.6934528"
         style="font-style:normal;font-variant:normal;font-weight:normal;font-stretch:normal;font-size:14.11111069px;line-height:1.25;font-family:Dyuthi;-inkscape-font-specification:Dyuthi;letter-spacing:0px;word-spacing:0px;fill:#000000;fill-opacity:1;stroke:none;stroke-width:0.26458332"
         xml:space="preserve"><tspan
           style="font-style:normal;font-variant:normal;font-weight:normal;font-stretch:normal;font-size:14.11111069px;font-family:Dyuthi;-inkscape-font-specification:Dyuthi;stroke-width:0.26458332"
           y="285.22171"
           x="8.6934528"
           id="tspan940"
           sodipodi:role="line">H</tspan></text>
      <path
         inkscape:connector-curvature="0"
         d="m 13.5,267.15883 v 7 M 18,266.76195 H 9"
         style="fill:none;stroke:#000000;stroke-width:1;stroke-linecap:round;stroke-linejoin:miter;stroke-miterlimit:4;stroke-dasharray:none;stroke-opacity:1"
         id="path946" />
      <path
         inkscape:connector-curvature="0"
         id="path949"
         style="fill:none;stroke:#000000;stroke-width:1;stroke-linecap:round;stroke-linejoin:miter;stroke-miterlimit:4;stroke-dasharray:none;stroke-opacity:1"
         d="m 13.5,294.71319 v -7 m 4.5,7.39688 H 9.0000002" />
    </g>
    <g
       id="g1027"
       transform="translate(13.512649,34.679315)">
      <rect
         style="opacity:1;fill:none;fill-opacity:1;stroke:#000000;stroke-width:1;stroke-linecap:round;stroke-linejoin:round;stroke-miterlimit:4;stroke-dasharray:none;stroke-dashoffset:0;stroke-opacity:1"
         id="rect981"
         width="6.7090774"
         height="28.348215"
         x="22.111607"
         y="266.7619" />
      <g
         id="g1025"
         transform="matrix(1,0,0,1.2863254,20.111607,-75.205958)">
        <path
           sodipodi:nodetypes="cc"
           inkscape:connector-curvature="0"
           id="path983"
           d="M 2,272 H 6"
           style="fill:none;stroke:#000000;stroke-width:0.26458332px;stroke-linecap:butt;stroke-linejoin:miter;stroke-opacity:1" />
        <path
           style="fill:none;stroke:#000000;stroke-width:0.26458332px;stroke-linecap:butt;stroke-linejoin:miter;stroke-opacity:1"
           d="M 2,276.86771 H 6"
           id="path985"
           inkscape:connector-curvature="0"
           sodipodi:nodetypes="cc" />
        <path
           style="fill:none;stroke:#000000;stroke-width:0.22994958px;stroke-linecap:butt;stroke-linejoin:miter;stroke-opacity:1"
           d="M 2,270.98268 H 5"
           id="path987"
           inkscape:connector-curvature="0"
           sodipodi:nodetypes="cc" />
        <path
           sodipodi:nodetypes="cc"
           inkscape:connector-curvature="0"
           id="path989"
           d="M 2,275.88503 H 5"
           style="fill:none;stroke:#000000;stroke-width:0.22994958px;stroke-linecap:butt;stroke-linejoin:miter;stroke-opacity:1" />
        <path
           sodipodi:nodetypes="cc"
           inkscape:connector-curvature="0"
           id="path991"
           d="M 2,269.98268 H 5"
           style="fill:none;stroke:#000000;stroke-width:0.22994958px;stroke-linecap:butt;stroke-linejoin:miter;stroke-opacity:1" />
        <path
           style="fill:none;stroke:#000000;stroke-width:0.22994958px;stroke-linecap:butt;stroke-linejoin:miter;stroke-opacity:1"
           d="M 2,274.88503 H 5"
           id="path993"
           inkscape:connector-curvature="0"
           sodipodi:nodetypes="cc" />
        <path
           style="fill:none;stroke:#000000;stroke-width:0.22994958px;stroke-linecap:butt;stroke-linejoin:miter;stroke-opacity:1"
           d="M 2,268.98268 H 5"
           id="path995"
           inkscape:connector-curvature="0"
           sodipodi:nodetypes="cc" />
        <path
           sodipodi:nodetypes="cc"
           inkscape:connector-curvature="0"
           id="path997"
           d="M 2,273.88503 H 5"
           style="fill:none;stroke:#000000;stroke-width:0.22994958px;stroke-linecap:butt;stroke-linejoin:miter;stroke-opacity:1" />
        <path
           sodipodi:nodetypes="cc"
           inkscape:connector-curvature="0"
           id="path999"
           d="M 2,267.98268 H 5"
           style="fill:none;stroke:#000000;stroke-width:0.22994958px;stroke-linecap:butt;stroke-linejoin:miter;stroke-opacity:1" />
        <path
           style="fill:none;stroke:#000000;stroke-width:0.22994958px;stroke-linecap:butt;stroke-linejoin:miter;stroke-opacity:1"
           d="M 2,272.88503 H 5"
           id="path1001"
           inkscape:connector-curvature="0"
           sodipodi:nodetypes="cc" />
        <path
           style="fill:none;stroke:#000000;stroke-width:0.26458332px;stroke-linecap:butt;stroke-linejoin:miter;stroke-opacity:1"
           d="M 2,282 H 6"
           id="path1003"
           inkscape:connector-curvature="0"
           sodipodi:nodetypes="cc" />
        <path
           sodipodi:nodetypes="cc"
           inkscape:connector-curvature="0"
           id="path1005"
           d="M 2,286.86771 H 6"
           style="fill:none;stroke:#000000;stroke-width:0.26458332px;stroke-linecap:butt;stroke-linejoin:miter;stroke-opacity:1" />
        <path
           sodipodi:nodetypes="cc"
           inkscape:connector-curvature="0"
           id="path1007"
           d="M 2,280.98268 H 5"
           style="fill:none;stroke:#000000;stroke-width:0.22994958px;stroke-linecap:butt;stroke-linejoin:miter;stroke-opacity:1" />
        <path
           style="fill:none;stroke:#000000;stroke-width:0.22994958px;stroke-linecap:butt;stroke-linejoin:miter;stroke-opacity:1"
           d="M 2,285.88503 H 5"
           id="path1009"
           inkscape:connector-curvature="0"
           sodipodi:nodetypes="cc" />
        <path
           style="fill:none;stroke:#000000;stroke-width:0.22994958px;stroke-linecap:butt;stroke-linejoin:miter;stroke-opacity:1"
           d="M 2,279.98268 H 5"
           id="path1011"
           inkscape:connector-curvature="0"
           sodipodi:nodetypes="cc" />
        <path
           sodipodi:nodetypes="cc"
           inkscape:connector-curvature="0"
           id="path1013"
           d="M 2,284.88503 H 5"
           style="fill:none;stroke:#000000;stroke-width:0.22994958px;stroke-linecap:butt;stroke-linejoin:miter;stroke-opacity:1" />
        <path
           sodipodi:nodetypes="cc"
           inkscape:connector-curvature="0"
           id="path1015"
           d="M 2,278.98268 H 5"
           style="fill:none;stroke:#000000;stroke-width:0.22994958px;stroke-linecap:butt;stroke-linejoin:miter;stroke-opacity:1" />
        <path
           style="fill:none;stroke:#000000;stroke-width:0.22994958px;stroke-linecap:butt;stroke-linejoin:miter;stroke-opacity:1"
           d="M 2,283.88503 H 5"
           id="path1017"
           inkscape:connector-curvature="0"
           sodipodi:nodetypes="cc" />
        <path
           style="fill:none;stroke:#000000;stroke-width:0.22994958px;stroke-linecap:butt;stroke-linejoin:miter;stroke-opacity:1"
           d="M 2,277.98268 H 5"
           id="path1019"
           inkscape:connector-curvature="0"
           sodipodi:nodetypes="cc" />
        <path
           sodipodi:nodetypes="cc"
           inkscape:connector-curvature="0"
           id="path1021"
           d="M 2,282.88503 H 5"
           style="fill:none;stroke:#000000;stroke-width:0.22994958px;stroke-linecap:butt;stroke-linejoin:miter;stroke-opacity:1" />
        <path
           style="fill:none;stroke:#000000;stroke-width:0.26458332px;stroke-linecap:butt;stroke-linejoin:miter;stroke-opacity:1"
           d="M 2,266.86771 H 6"
           id="path1023"
           inkscape:connector-curvature="0"
           sodipodi:nodetypes="cc" />
      </g>
    </g>
    <g
       id="g1139"
       transform="matrix(0.16173876,-0.98683361,-0.98683361,-0.16173876,307.86095,361.20835)">
      <path
         inkscape:connector-curvature="0"
         d="m -11.4161,284.32423 c 0,0 2.6874765,-1.94044 4.1080105,0.41751 1.4205336,2.35793 3.7706865,0.10652 3.7706865,0.10652 0,0 2.422886,-2.05956 4.01672047,0.40823 1.59383453,2.46778 4.14512153,0.0523 4.14512153,0.0523 m -16.040539,-0.9846 c 0,0 2.477503,-2.20223 4.1291716,0 1.6516683,2.20223 3.7621335,-0.27528 3.7621335,-0.27528 0,0 2.2022246,-2.29398 4.03741167,0 1.83518713,2.29399 3.39509623,-0.0458 3.39509623,-0.0458 l -0.7559108,-0.83832 3.0280588,-0.32116 -1.0093529,3.21158 c -0.182023,-0.24879 -0.5944832,-0.81257 -0.5460691,-0.74639"
         style="fill:none;stroke:#000000;stroke-width:0.48552984;stroke-linecap:butt;stroke-linejoin:round;stroke-miterlimit:4;stroke-dasharray:none;stroke-opacity:1"
         id="path1131" />
      <path
         inkscape:connector-curvature="0"
         id="path1135"
         style="fill:none;stroke:#000000;stroke-width:0.53947759;stroke-linecap:butt;stroke-linejoin:round;stroke-miterlimit:4;stroke-dasharray:none;stroke-opacity:1"
         d="m -9.5082982,288.98396 c 0,0 2.9860847,-2.15605 4.5644557,0.46389 1.5783708,2.61993 4.18965173,0.11837 4.18965173,0.11837 0,0 2.69209547,-2.2884 4.46302267,0.45358 1.7709273,2.74198 4.6056907,0.0582 4.6056907,0.0582 m -17.8228208,-1.09399 c 0,0 2.7527808,-2.44692 4.5879681,0 1.835187,2.44692 4.18014837,-0.30587 4.18014837,-0.30587 0,0 2.44691613,-2.54886 4.48601283,0 2.0390969,2.54887 3.7723292,-0.0509 3.7723292,-0.0509 l -0.8399009,-0.93146 3.3645096,-0.35685 -1.121503,3.56842 c -0.2022478,-0.27644 -0.6605369,-0.90286 -0.6067434,-0.82933" />
    </g>
    <g
       id="g1279"
       transform="translate(52.197739,35.733936)">
      <path
         inkscape:connector-curvature="0"
         d="m 13.382274,282.0548 -1.674112,-3.0004 m -4.1081872,-7.36279 -1.6741151,-3.00039 m 0.1129543,8.69898 -3.0003879,1.67411 m 13.2312809,-7.3826 -3.000388,1.67411 m 3.73954,4.12736 -3.302595,-0.94755 m -8.1043962,-2.32524 -3.3025944,-0.94755 m 6.2130614,6.08956 -0.9475488,3.30259 m 4.178564,-14.56397 -0.947552,3.3026 m 2.821382,5.11645 a 4.1230059,4.1230059 0 0 1 -5.1001734,2.82605 4.1230059,4.1230059 0 0 1 -2.8260539,-5.10017 4.1230059,4.1230059 0 0 1 5.1001763,-2.82606 4.1230059,4.1230059 0 0 1 2.826051,5.10018 z"
         style="fill:none;stroke:#000000;stroke-width:0.68716764;stroke-linecap:round;stroke-linejoin:miter;stroke-miterlimit:4;stroke-dasharray:none;stroke-opacity:1"
         id="path1240" />
      <g
         transform="rotate(-38.847604,23.791813,282.29333)"
         id="g1259">
        <g
           transform="matrix(0.08070356,0.55841388,-0.55841388,0.08070356,177.67864,255.26652)"
           id="g1265">
          <path
             id="path1244"
             d="m 21.474347,282.94595 a 8,8 0 0 1 -8.317389,3.87847 8,8 0 0 1 -6.4892765,-6.48928 8,8 0 0 1 3.8784615,-8.31739"
             style="opacity:1;fill:none;fill-opacity:1;stroke:#000000;stroke-width:1;stroke-linecap:round;stroke-linejoin:round;stroke-miterlimit:4;stroke-dasharray:none;stroke-dashoffset:0;stroke-opacity:1"
             inkscape:connector-curvature="0" />
          <path
             sodipodi:nodetypes="cscsc"
             inkscape:connector-curvature="0"
             d="m 21.474347,282.94595 c 0.885614,5.68701 -4.351742,8.48409 -7.109132,8.62121 -2.75739,0.13712 -5.7188855,0.38446 -8.9763925,-2.97374 -2.3314653,-2.29986 -3.4657424,-6.04935 -3.0350726,-9.4247 0.2902101,-2.27451 2.5227271,-7.23804 8.1923931,-7.15097"
             style="opacity:1;fill:none;fill-opacity:1;stroke:#000000;stroke-width:1;stroke-linecap:round;stroke-linejoin:round;stroke-miterlimit:4;stroke-dasharray:none;stroke-dashoffset:0;stroke-opacity:1"
             id="path1246" />
          <path
             inkscape:transform-center-y="-0.16849421"
             inkscape:transform-center-x="-0.15050649"
             d="m 14.631371,282.17656 c -0.527102,0.27453 -1.330041,-1.31697 -1.917841,-1.40469 -0.587801,-0.0877 -1.820425,1.19999 -2.244405,0.78353 -0.423979,-0.41647 0.841508,-1.67191 0.743296,-2.25805 -0.09821,-0.58614 -1.70381,-1.36051 -1.4387416,-1.89243 0.2650686,-0.53193 1.8501206,0.28367 2.3772226,0.009 0.527102,-0.27454 0.767413,-2.04084 1.355214,-1.95312 0.5878,0.0877 0.30193,1.84723 0.725909,2.2637 0.423979,0.41647 2.178097,0.0992 2.276309,0.68533 0.09821,0.58614 -1.663518,0.85798 -1.928586,1.38991 -0.265069,0.53192 0.578725,2.10214 0.05162,2.37668 z"
             inkscape:randomized="0"
             inkscape:rounded="0.25"
             inkscape:flatsided="false"
             sodipodi:arg2="1.7189398"
             sodipodi:arg1="1.0906213"
             sodipodi:r2="1.789914"
             sodipodi:r1="3.579828"
             sodipodi:cy="279.00156"
             sodipodi:cx="12.977725"
             sodipodi:sides="5"
             id="path1251"
             style="opacity:1;fill:none;fill-opacity:1;stroke:#000000;stroke-width:0.5;stroke-linecap:round;stroke-linejoin:round;stroke-miterlimit:4;stroke-dasharray:none;stroke-dashoffset:0;stroke-opacity:1"
             sodipodi:type="star" />
          <path
             inkscape:transform-center-y="0.03572458"
             inkscape:transform-center-x="0.15942645"
             d="m 9.1987572,295.17769 c -0.1976633,0.30747 -1.1121729,-0.29727 -1.4528157,-0.1647 -0.3406429,0.13257 -0.6057854,1.1964 -0.9592939,1.10343 -0.3535085,-0.093 -0.060966,-1.1496 -0.292312,-1.4326 -0.2313459,-0.28301 -1.3250431,-0.20643 -1.3458602,-0.57137 -0.020817,-0.36494 1.0744937,-0.41323 1.272157,-0.7207 0.1976632,-0.30748 -0.2131363,-1.32398 0.1275066,-1.45655 0.3406428,-0.13257 0.7250397,0.89421 1.0785482,0.98718 0.3535084,0.093 1.1933176,-0.61184 1.4246635,-0.32883 0.2313459,0.283 -0.6263945,0.96588 -0.6055775,1.33081 0.020817,0.36494 0.9506472,0.94585 0.752984,1.25333 z"
             inkscape:randomized="0"
             inkscape:rounded="0.25"
             inkscape:flatsided="false"
             sodipodi:arg2="1.199656"
             sodipodi:arg1="0.57133748"
             sodipodi:r2="1.100886"
             sodipodi:r1="2.201772"
             sodipodi:cy="293.98706"
             sodipodi:cx="7.346674"
             sodipodi:sides="5"
             id="path1253"
             style="opacity:1;fill:none;fill-opacity:1;stroke:#000000;stroke-width:0.5;stroke-linecap:round;stroke-linejoin:round;stroke-miterlimit:4;stroke-dasharray:none;stroke-dashoffset:0;stroke-opacity:1"
             sodipodi:type="star" />
        </g>
      </g>
      <path
         inkscape:connector-curvature="0"
         id="path1269"
         d="M 8.5328125,289.45937 25.466147,272.45989"
         style="fill:none;stroke:#000000;stroke-width:1;stroke-linecap:round;stroke-linejoin:miter;stroke-miterlimit:4;stroke-dasharray:none;stroke-opacity:1" />
    </g>
    <g
       id="g1863"
       transform="translate(-70.007422)">
      <g
         style="fill:none;fill-opacity:1;stroke:#002255;stroke-width:1.12313223;stroke-miterlimit:4;stroke-dasharray:none;stroke-opacity:1"
         id="g1495"
         transform="matrix(0.33163069,-2.0234131,-2.0234131,-0.33163069,33.916394,-169.2153)">
        <path
           inkscape:connector-curvature="0"
           d="m -1.8224955,284.30645 c -1.9874079,-2.82343 -3.8533912,2.43975 -4.9289249,0.372 -2.5329779,-4.86975 -4.9056586,-1.11861 -4.9056586,-1.11861 0,0 2.7133599,-3.30013 4.5394754,-1.11149 1.588043,1.90331 3.3611731,-3.47881 6.021513,0.18296 1.83518699,2.29399 3.9163477,0.39647 3.9163477,0.39647 l 0.090566,-0.62736 4.273124,1.59394 -2.7946285,2.27259 c -0.182023,-0.24879 -0.3686418,-0.73705 -0.5932623,-1.04408 0,0 -4.02471751,1.55136 -5.6185521,-0.91641 z m 2.26197643,6.15023 c -1.98740793,-2.82343 -3.85339123,2.43975 -4.92892493,0.372 -2.5329779,-4.86975 -4.9056584,-1.11861 -4.9056584,-1.11861 0,0 2.7133597,-3.30013 4.5394752,-1.11149 1.588043,1.90331 3.3611731,-3.47881 6.021513,0.18296 1.835187,2.29399 3.9163477,0.39647 3.9163477,0.39647 l 0.090566,-0.62736 4.273124,1.59394 -2.7946285,2.27259 c -0.182023,-0.24879 -0.3686418,-0.73705 -0.5932623,-1.04408 0,0 -4.0247175,1.55136 -5.61855207,-0.91641 z m -16.57919993,7.51401 0.570472,-3.48068 m 3.760908,4.19058 0.570471,-3.48068 m 3.760892,4.19058 0.5704714,-3.48068 m 3.7609078,4.19057 0.5704714,-3.48067 m 20.6513564,9.15892 -5.474372,0.6437 z m -2.459564,9.055 -4.31621,-3.42881 z m -3.075131,-6.62317 c -0.455352,2.937 -2.8135572,5.20978 -5.7653692,5.55654 -3.6284475,0.42607 -6.9153409,-2.16987 -7.34157491,-5.79831 -0.11836914,-1.0155 2.7164e-4,-2.04462 0.34659683,-3.00655 -0.31067842,0.0884 -0.62680807,0.11655 -0.93749292,0.0656 l -23.6227828,-3.8717 c -2.300165,2.80948 -6.200137,3.72373 -9.509218,2.22909 -3.309077,-1.49466 -5.202197,-5.02569 -4.614927,-8.60886 0.235654,-1.43782 0.852191,-2.73609 1.73327,-3.80348 -13.487083,-6.32199 -12.345813,-18.25494 -2.012654,-23.42523 -2.215776,4.4677 -1.400167,9.8456 2.040167,13.45575 3.440401,3.61012 8.770949,4.6828 13.340076,2.68463 4.569098,-1.9982 7.399806,-6.64123 7.084847,-11.61822 2.083569,3.0315 2.43409,6.04407 1.953082,8.66075 -0.618544,3.36429 -2.609906,6.07358 -4.055621,7.32558 -1.643198,1.42295 -3.61119,2.54249 -5.698719,3.27874 0.421933,0.57576 0.775599,1.21142 1.03728,1.90417 l 23.62278298,3.8717 c 1.65711772,0.27159 2.74873962,2.6898 2.52916952,4.37689 0.7858269,-0.46013 1.6581954,-0.75309 2.562472,-0.86048 3.6284474,-0.42607 6.9153405,2.16987 7.3415905,5.79831 0.06973,0.59377 0.05865,1.19426 -0.03294,1.78505 z m 1.024322,-10.53035 -3.429639,4.31609 z M 7.4367577,319.38947 6.7940156,313.91443 Z M 5.2151749,300.47883 4.5714903,295.00448 Z m -3.3431614,11.91893 -3.4288158,4.31622 z m -2.46481691,-4.426 -5.47517989,0.64356 z"
           style="fill:none;fill-opacity:1;stroke:#002255;stroke-width:1.12313223;stroke-linecap:butt;stroke-linejoin:round;stroke-miterlimit:4;stroke-dasharray:none;stroke-opacity:1"
           id="path1521" />
      </g>
      <g
         id="flowRoot1526"
         style="font-style:normal;font-weight:normal;font-size:32px;line-height:1.25;font-family:sans-serif;letter-spacing:0px;word-spacing:0px;fill:#000000;fill-opacity:1;stroke:none"
         transform="matrix(2.7866521,0,0,3.7219883,778.20338,86.982004)"
         aria-label="CLIMA
">
        <path
           id="path1553"
           style="font-style:normal;font-variant:normal;font-weight:normal;font-stretch:normal;font-family:'Yanone Kaffeesatz';-inkscape-font-specification:'Yanone Kaffeesatz';fill:#d4aa00;fill-opacity:1"
           d="m -544.84342,-96.78006 c -2.88,0 -6.304,1.6 -6.304,12.544 0,9.312 2.272,10.688 5.312,10.688 2.368,0 3.968,-1.056 3.968,-2.304 0,-0.544 -0.192,-1.152 -0.416,-1.568 -0.576,0.48 -1.696,0.992 -2.944,0.992 -1.856,0 -3.2,-1.44 -3.2,-7.968 0,-8.416 2.08,-9.856 4.096,-9.856 0.992,0 1.76,0.512 2.08,0.8 0.192,-0.384 0.416,-0.96 0.416,-1.568 0,-0.832 -0.64,-1.76 -3.008,-1.76 z"
           inkscape:connector-curvature="0" />
        <path
           id="path1555"
           style="font-style:normal;font-variant:normal;font-weight:normal;font-stretch:normal;font-family:'Yanone Kaffeesatz';-inkscape-font-specification:'Yanone Kaffeesatz';fill:#d4aa00;fill-opacity:1"
           d="m -537.22748,-76.39606 v -19.968 c -2.56,0 -2.624,0 -2.624,0.736 v 21.664 h 7.616 c 0.288,0 0.512,-0.096 0.512,-0.544 v -1.888 z"
           inkscape:connector-curvature="0" />
        <path
           id="path1557"
           style="font-style:normal;font-variant:normal;font-weight:normal;font-stretch:normal;font-family:'Yanone Kaffeesatz';-inkscape-font-specification:'Yanone Kaffeesatz';fill:#d4aa00;fill-opacity:1"
           d="m -529.8035,-95.18006 v 21.216 c 2.624,0 2.656,0 2.656,-0.544 v -21.856 c -2.592,0 -2.656,0 -2.656,1.184 z"
           inkscape:connector-curvature="0" />
        <path
           id="path1559"
           style="font-style:normal;font-variant:normal;font-weight:normal;font-stretch:normal;font-family:'Yanone Kaffeesatz';-inkscape-font-specification:'Yanone Kaffeesatz';fill:#d4aa00;fill-opacity:1"
           d="m -513.64355,-96.36406 c -0.32,0 -0.416,0.224 -0.512,0.512 l -2.816,9.248 c -0.384,1.216 -0.928,3.456 -0.928,3.456 0,0 -0.608,-2.24 -1.024,-3.552 l -3.04,-9.664 h -1.888 c -0.288,0 -0.544,0.032 -0.544,0.512 v 21.888 c 2.432,0 2.592,0 2.592,-0.544 l -0.064,-7.36 c -0.032,-3.424 -0.608,-9.344 -0.608,-9.344 l 0.032,-0.032 c 0.672,2.464 1.792,6.528 2.048,7.232 l 1.664,5.12 h 1.12 c 0.128,0 0.288,-0.032 0.352,-0.256 l 1.696,-4.864 c 0.256,-0.768 1.408,-4.896 2.08,-7.296 -0.064,0.736 -0.512,6.4 -0.608,9.568 l -0.096,7.776 c 2.656,0 2.656,0 2.656,-0.544 v -21.856 z"
           inkscape:connector-curvature="0" />
        <path
           id="path1561"
           style="font-style:normal;font-variant:normal;font-weight:normal;font-stretch:normal;font-family:'Yanone Kaffeesatz';-inkscape-font-specification:'Yanone Kaffeesatz';fill:#d4aa00;fill-opacity:1"
           d="m -496.3316,-74.44406 -5.728,-21.92 c -0.288,-0.064 -0.768,-0.096 -1.216,-0.096 -0.576,0 -0.928,0.128 -0.992,0.448 l -5.696,22.016 c 0.608,0.064 1.28,0.096 1.632,0.096 1.024,0 1.12,-0.16 1.216,-0.512 l 1.216,-5.248 h 5.536 l 1.376,5.696 c 0.64,0.064 1.152,0.064 1.536,0.064 1.024,0 1.216,-0.192 1.12,-0.544 z m -8.992,-7.584 1.088,-4.544 c 0.48,-2.144 0.928,-4.608 1.12,-6.144 0.16,1.536 0.608,4.032 1.12,6.144 l 1.088,4.544 z"
           inkscape:connector-curvature="0" />
      </g>
      <g
         id="text1538"
         style="font-style:normal;font-variant:normal;font-weight:normal;font-stretch:normal;font-size:7.36837196px;line-height:1.25;font-family:'Yanone Kaffeesatz';-inkscape-font-specification:'Yanone Kaffeesatz';letter-spacing:0px;word-spacing:0px;fill:#d4aa00;fill-opacity:1;stroke:none;stroke-width:0.3947342"
         transform="matrix(2.7197768,0,0,7.0521134,97.510394,-1344.256)"
         aria-label="ONTROL">
        <path
           id="path1540"
           style="font-style:normal;font-variant:normal;font-weight:normal;font-stretch:normal;font-family:'Yanone Kaffeesatz';-inkscape-font-specification:'Yanone Kaffeesatz';fill:#d4aa00;fill-opacity:1;stroke-width:0.3947342"
           d="m -224.68145,162.66284 c 0,2.12209 0.37579,2.67472 1.33368,2.67472 0.96526,0 1.38525,-0.67053 1.38525,-2.69683 0,-1.98946 -0.35368,-2.59367 -1.3042,-2.59367 -0.95789,0 -1.41473,0.65579 -1.41473,2.61578 z m 0.67053,0.14736 c 0,-1.59156 0.20631,-2.15156 0.7221,-2.15156 0.53052,0 0.67789,0.52315 0.67789,1.99683 0,1.50315 -0.18421,2.07051 -0.71473,2.07051 -0.52316,0 -0.68526,-0.54526 -0.68526,-1.91578 z"
           inkscape:connector-curvature="0" />
        <path
           id="path1542"
           style="font-style:normal;font-variant:normal;font-weight:normal;font-stretch:normal;font-family:'Yanone Kaffeesatz';-inkscape-font-specification:'Yanone Kaffeesatz';fill:#d4aa00;fill-opacity:1;stroke-width:0.3947342"
           d="m -219.38359,160.23127 v 1.73894 c 0,0.34631 0.0147,1.7463 0.0663,2.18841 v 0.0221 c -0.17684,-0.55263 -0.55263,-1.69472 -0.69999,-2.07788 l -0.82526,-1.98946 h -0.45684 c -0.0884,0 -0.12526,0.0368 -0.12526,0.11789 v 5.03997 c 0.59684,0 0.6042,0 0.6042,-0.12526 v -1.78315 c 0,-0.31684 -0.0368,-1.7242 -0.0811,-2.20314 0.18421,0.5821 0.56737,1.75367 0.7,2.08525 l 0.83999,2.0263 h 0.44947 c 0.0811,0 0.12526,-0.0442 0.12526,-0.12526 v -5.0326 c -0.58947,0 -0.59683,0 -0.59683,0.11789 z"
           inkscape:connector-curvature="0" />
        <path
           id="path1544"
           style="font-style:normal;font-variant:normal;font-weight:normal;font-stretch:normal;font-family:'Yanone Kaffeesatz';-inkscape-font-specification:'Yanone Kaffeesatz';fill:#d4aa00;fill-opacity:1;stroke-width:0.3947342"
           d="m -218.28572,160.11338 c -0.0884,0 -0.12526,0.0368 -0.12526,0.11789 v 0.44211 h 1.0021 v 4.59786 c 0.58947,0 0.59684,0 0.59684,-0.11789 v -4.47997 h 0.90631 c 0.0884,0 0.12526,-0.0295 0.12526,-0.12527 v -0.43473 z"
           inkscape:connector-curvature="0" />
        <path
           id="path1546"
           style="font-style:normal;font-variant:normal;font-weight:normal;font-stretch:normal;font-family:'Yanone Kaffeesatz';-inkscape-font-specification:'Yanone Kaffeesatz';fill:#d4aa00;fill-opacity:1;stroke-width:0.3947342"
           d="m -213.1426,165.13124 c -0.0737,-1.12736 -0.45684,-1.80525 -0.69263,-2.12209 0.38316,-0.21368 0.64105,-0.65579 0.64105,-1.43683 0,-1.02421 -0.42736,-1.45894 -1.35578,-1.45894 h -0.37579 -0.35368 c -0.12526,0 -0.12526,0.11789 -0.12526,0.11789 v 5.03997 c 0.58947,0 0.60421,0 0.60421,-0.12526 v -1.96736 h 0.25789 c 0.0442,0 0.0958,0 0.14,-0.007 0.17684,0.24316 0.53052,0.85474 0.6042,2.09999 0.13263,0.007 0.2579,0.0147 0.35369,0.0147 0.27999,0 0.3021,-0.0368 0.3021,-0.15474 z m -1.65788,-2.50525 v -1.98946 h 0.36105 c 0.43473,0 0.5821,0.33895 0.5821,0.90631 0,0.78105 -0.21369,1.08315 -0.62631,1.08315 z"
           inkscape:connector-curvature="0" />
        <path
           id="path1548"
           style="font-style:normal;font-variant:normal;font-weight:normal;font-stretch:normal;font-family:'Yanone Kaffeesatz';-inkscape-font-specification:'Yanone Kaffeesatz';fill:#d4aa00;fill-opacity:1;stroke-width:0.3947342"
           d="m -212.75945,162.66284 c 0,2.12209 0.37579,2.67472 1.33368,2.67472 0.96525,0 1.38525,-0.67053 1.38525,-2.69683 0,-1.98946 -0.35368,-2.59367 -1.3042,-2.59367 -0.95789,0 -1.41473,0.65579 -1.41473,2.61578 z m 0.67052,0.14736 c 0,-1.59156 0.20632,-2.15156 0.72211,-2.15156 0.53052,0 0.67789,0.52315 0.67789,1.99683 0,1.50315 -0.18421,2.07051 -0.71474,2.07051 -0.52315,0 -0.68526,-0.54526 -0.68526,-1.91578 z"
           inkscape:connector-curvature="0" />
        <path
           id="path1550"
           style="font-style:normal;font-variant:normal;font-weight:normal;font-stretch:normal;font-family:'Yanone Kaffeesatz';-inkscape-font-specification:'Yanone Kaffeesatz';fill:#d4aa00;fill-opacity:1;stroke-width:0.3947342"
           d="m -208.89843,164.71124 v -4.59786 c -0.58947,0 -0.6042,0 -0.6042,0.16947 v 4.98839 h 1.75367 c 0.0663,0 0.11789,-0.0221 0.11789,-0.12526 v -0.43474 z"
           inkscape:connector-curvature="0" />
      </g>
    </g>
    <g
       id="g1846"
       transform="translate(-16.463806,-61.365079)">
      <rect
         y="-44.715534"
         x="-721.70966"
         height="117.20917"
         width="108.80715"
         id="rect1819"
         style="opacity:1;fill:#ffffff;fill-opacity:1;stroke:none;stroke-width:0.63786435;stroke-linecap:round;stroke-linejoin:round;stroke-miterlimit:4;stroke-dasharray:none;stroke-dashoffset:0;stroke-opacity:1" />
      <path
         sodipodi:nodetypes="sssssssssccccccccccccccccccccccccccccccccccccccsccccccccccccccccccccccccccccccccccccccccccccccccccsccccccccccccccccc"
         inkscape:connector-curvature="0"
         id="rect1655"
         d="m -721.70965,-58.934273 c -7.71997,0 -13.93507,6.215102 -13.93507,13.935067 V 66.48037 c 0,7.71997 6.2151,13.93507 13.93507,13.93507 h 111.47957 c 7.71997,0 13.93506,-6.2151 13.93506,-13.93507 V -44.999206 c 0,-7.719965 -6.21509,-13.935067 -13.93506,-13.935067 z m 39.50757,17.86014 h 2.10463 v 6.634125 c 2.07723,0.209185 4.0465,1.026823 5.66103,2.350435 l 4.6951,-4.695111 1.48823,1.488705 -4.69559,4.695591 c 1.32007,1.615526 2.13431,3.584518 2.34083,5.660535 h 6.64469 v 2.10464 h -6.63365 c -0.20869,2.062893 -1.01752,4.019363 -2.32643,5.627413 2.41763,0.4434 5.1267,2.46676 5.12669,4.75416 v 3.05854 h 0.26308 v 1.85788 h -0.26308 v 4.96395 h 0.26308 v 1.85788 h -0.26308 v 4.96396 h 0.26308 v 1.85836 h -0.26308 v 4.96395 h 0.26308 v 1.85788 h -0.26308 v 10.83092 c 0.97017,0.56016 1.83273,1.24408 2.58903,2.01486 1.60991,-2.9363 3.76308,-5.6007 6.28944,-7.70564 2.22283,-1.85195 6.75453,-4.16184 11.92836,-4.26209 4.0241,-0.0778 8.43576,1.18272 12.45164,5.03501 -7.35301,-1.68796 -14.97704,1.40174 -19.07808,7.73396 -4.101,6.33227 -3.80407,14.55262 0.74364,20.57207 4.54775,6.01934 12.37696,8.55267 19.58888,6.33792 -10.24695,14.16115 -28.34083,12.94516 -34.47882,-8.73636 -1.80908,1.05419 -3.89805,1.65721 -6.1022,1.65721 -5.49295,0 -10.3012,-3.6903 -11.72289,-8.99608 -1.42167,-5.30578 0.89726,-10.90439 5.65429,-13.65086 v -36.21332 c -3e-5,-0.31973 0.0577,-0.63389 0.15602,-0.93998 -0.10648,0.0176 -0.21323,0.0336 -0.32021,0.048 v 6.6442 h -2.10463 v -6.63316 c -2.07738,-0.2096 -4.04667,-1.02775 -5.66102,-2.35188 l -4.6951,4.69511 -1.48823,-1.48774 4.69559,-4.69559 c -1.32007,-1.61553 -2.13432,-3.58452 -2.34083,-5.660543 h -6.64421 v -2.10464 h 6.63364 c 0.20956,-2.077156 1.02753,-4.046263 2.3514,-5.660533 l -4.69559,-4.695591 1.48823,-1.488704 4.69558,4.695591 c 1.61553,-1.320069 3.58452,-2.134317 5.66054,-2.340835 z m 14.40553,54.002893 v -1.85788 h -6.20445 v 1.85788 z m 0,-6.82183 V 4.24857 h -6.20445 v 1.85836 z m 0,-6.82232 v -1.85788 h -6.20445 v 1.85788 z m 0,-6.82183 V -9.3951 h -6.20445 v 1.85788 z m 12.67632,-17.102593 1.33412,6.769033 -0.9587,-0.0182 c 0,0 -3.34193,2.64276 -0.3663,5.94378 4.81567,4.86754 -3.65304,6.19754 -1.20018,9.034 1.58866,1.83712 0.5088,3.66867 -0.73739,4.91787 -0.76963,1.04863 -2.03263,1.58712 -2.03263,1.58712 0,0 1.06628,-0.61843 2.03263,-1.58712 0.93164,-1.26936 1.13913,-3.28676 -2.50262,-6.01003 -2.82375,-2.11158 5.49017,-3.60954 1.76139,-7.26734 -3.29383,-2.98328 0.006,-8.61202 0.006,-8.61202 -0.4034,-0.41046 -1.08646,-0.80853 -1.41334,-1.14113 z m 8.62835,4.881863 1.33364,6.76903 -0.95871,-0.0182 c 0,0 -3.34192,2.64276 -0.36629,5.94377 4.81567,4.86754 -3.65305,6.19754 -1.20019,9.03402 1.58845,1.83687 0.50956,3.66771 -0.73642,4.9169 -0.76959,1.04908 -2.03359,1.58808 -2.03359,1.58808 0,0 1.06711,-0.61911 2.03359,-1.58808 0.93121,-1.2694 1.13799,-3.28629 -2.50311,-6.00907 -2.82373,-2.11159 5.49017,-3.60954 1.76139,-7.26734 -3.29426,-2.98323 0.007,-8.61203 0.007,-8.61203 -0.4034,-0.41046 -1.08693,-0.80851 -1.41381,-1.14113 z"
         style="opacity:1;fill:url(#linearGradient1817);fill-opacity:1;stroke:none;stroke-width:0.650298;stroke-linecap:round;stroke-linejoin:round;stroke-miterlimit:4;stroke-dasharray:none;stroke-dashoffset:0;stroke-opacity:1" />
    </g>
  </g>
</svg>
