<?xml version="1.0" encoding="UTF-8" standalone="no"?>
<!-- Created with Inkscape (http://www.inkscape.org/) -->

<svg
   xmlns:dc="http://purl.org/dc/elements/1.1/"
   xmlns:cc="http://creativecommons.org/ns#"
   xmlns:rdf="http://www.w3.org/1999/02/22-rdf-syntax-ns#"
   xmlns:svg="http://www.w3.org/2000/svg"
   xmlns="http://www.w3.org/2000/svg"
   xmlns:sodipodi="http://sodipodi.sourceforge.net/DTD/sodipodi-0.dtd"
   xmlns:inkscape="http://www.inkscape.org/namespaces/inkscape"
   width="32mm"
   height="32mm"
   viewBox="0 0 32 32"
   version="1.1"
   id="svg1353"
   inkscape:version="0.92.4 5da689c313, 2019-01-14"
   sodipodi:docname="temp.svg">
  <defs
     id="defs1347" />
  <sodipodi:namedview
     id="base"
     pagecolor="#ffffff"
     bordercolor="#666666"
     borderopacity="1.0"
     inkscape:pageopacity="0.0"
     inkscape:pageshadow="2"
     inkscape:zoom="0.98994949"
     inkscape:cx="174.05927"
     inkscape:cy="279.16316"
     inkscape:document-units="mm"
     inkscape:current-layer="layer1"
     showgrid="false"
     inkscape:window-width="1877"
     inkscape:window-height="1025"
     inkscape:window-x="43"
     inkscape:window-y="27"
     inkscape:window-maximized="1" />
  <metadata
     id="metadata1350">
    <rdf:RDF>
      <cc:Work
         rdf:about="">
        <dc:format>image/svg+xml</dc:format>
        <dc:type
           rdf:resource="http://purl.org/dc/dcmitype/StillImage" />
        <dc:title></dc:title>
      </cc:Work>
    </rdf:RDF>
  </metadata>
  <g
     inkscape:label="Camada 1"
     inkscape:groupmode="layer"
     id="layer1"
     transform="translate(0,-265)">
    <path
       id="path824"
       style="fill:none;stroke:#000000;stroke-width:1;stroke-linecap:round;stroke-linejoin:miter;stroke-miterlimit:4;stroke-dasharray:none;stroke-opacity:1"
       d="m 18.128261,272.11793 h -2.267857 m 2.267857,2.64585 h -2.267857 m 2.267857,2.64585 h -2.267857 m 2.267857,2.64584 h -2.267857 m 2.639685,4.739 c 1.959839,1.13151 2.915245,3.4383 2.329531,5.62422 -0.585717,2.18592 -2.566603,3.7059 -4.82963,3.7059 -2.263027,0 -4.243911,-1.51998 -4.829628,-3.7059 -0.585714,-2.18592 0.369888,-4.49271 2.329727,-5.62422 0,0 0,0 0,-14.91906 0,-1.06719 1.432813,-2 2.5,-2 1.067187,0 2.5,0.93281 2.5,2 0,14.91906 0,14.91906 0,14.91906 z"
       inkscape:connector-curvature="0" />
  </g>
</svg>
